<svg width="24" height="24" viewBox="0 0 24 24" fill="none" xmlns="http://www.w3.org/2000/svg">
<g id="search 2" clip-path="url(#clip0_874_7835)">
<g id="Vector">
<path d="M13.5038 20.9966C7.70695 20.9966 3.00762 16.2973 3.00762 10.5004C3.00762 4.7035 7.7069 0.00427246 13.5038 0.00427246C19.3007 0.00427246 24 4.70355 24 10.5005C24 16.2974 19.3007 20.9966 13.5038 20.9966ZM13.5038 3.0032C9.36317 3.0032 6.00654 6.35982 6.00654 10.5005C6.00654 14.6411 9.36317 17.9977 13.5038 17.9977C17.6445 17.9977 21.0011 14.6411 21.0011 10.5005C21.0011 6.35982 17.6444 3.0032 13.5038 3.0032Z" fill="#6418C3"/>
<path d="M1.50815 23.9956C1.10958 23.9979 0.726507 23.8414 0.443546 23.5607C-0.144446 22.9775 -0.148323 22.0282 0.434863 21.4402C0.437757 21.4373 0.440651 21.4344 0.443546 21.4315L6.08149 15.7936C6.69015 15.2056 7.66023 15.2224 8.24823 15.831C8.83622 16.4397 8.81942 17.4098 8.21076 17.9978L2.57276 23.5607C2.2898 23.8414 1.90673 23.9979 1.50815 23.9956Z" fill="#6418C3"/>
</g>
</g>
<defs>
<clipPath id="clip0_874_7835">
<rect width="24" height="24" fill="white"/>
</clipPath>
</defs>
</svg>
